<?xml version="1.0" encoding="UTF-8"?><svg id="Layer_2" xmlns="http://www.w3.org/2000/svg" viewBox="0 0 232.99 312.03"><defs><style>.cls-1{fill:#fff;}</style></defs><g id="graphics"><g><path class="cls-1" d="M132.37,149.41c-1.58-3.8-5.21-7.95-9.77-8.7-2.97-.48-4.98-3.28-4.5-6.24,.48-2.97,3.27-4.98,6.24-4.5,9.27,1.51,15.41,8.87,18.07,15.26,1.15,2.77-.16,5.95-2.93,7.11-2.75,1.15-5.95-.14-7.11-2.93Z"/><path class="cls-1" d="M231.63,129.37c-.61-1.79-2.1-3.13-3.93-3.56l-67.83-15.92,64.4-15.11c1.84-.43,3.32-1.78,3.93-3.56,.64-1.86,5.78-19.53-9.21-67.63-.9-2.89-3.97-4.5-6.87-3.6-2.89,.9-4.5,3.97-3.6,6.87,10.67,34.25,10.44,51.74,9.74,58.08l-55.85,13.11,36.78-21.23c2.08-1.2,3.13-3.61,2.61-5.95-.42-1.87-10.69-46.03-47.11-69.95-2.53-1.66-5.93-.96-7.59,1.57-1.66,2.53-.96,5.93,1.57,7.59,26.78,17.58,38.11,48.56,41.37,59.35l-54.5,31.47c7.18-11.69,6.24-25.2-2.47-33.91-9.1-9.1-23.93-9.12-33.05,0-8.3,8.3-10.25,21.83-2.44,33.99l-54.66-31.56c3.24-10.78,14.52-41.7,41.38-59.34,2.53-1.66,3.24-5.06,1.57-7.59-1.66-2.53-5.06-3.23-7.59-1.57C41.87,24.82,31.6,68.98,31.18,70.85c-.53,2.34,.53,4.75,2.61,5.95l36.78,21.23-55.85-13.11c-.7-6.33-.92-23.83,9.74-58.08,.9-2.89-.71-5.96-3.6-6.87-2.89-.9-5.97,.71-6.87,3.6C-.99,71.68,4.15,89.36,4.79,91.21c.61,1.79,2.1,3.13,3.93,3.56l64.4,15.11L5.29,125.81c-1.84,.43-3.32,1.78-3.93,3.56-.64,1.86-5.77,19.53,9.21,67.63,.9,2.89,3.97,4.5,6.87,3.6,2.89-.9,4.5-3.97,3.6-6.87-10.67-34.25-10.44-51.74-9.74-58.08l67.39-15.82-43.13,23.59c-1.76,.96-2.85,2.81-2.85,4.81,0,1.02,.25,25.52,21.88,67.34,3.44,6.66,7.29,13.48,11.43,20.26,1.58,2.59,4.95,3.4,7.54,1.83,2.59-1.58,3.4-4.95,1.83-7.54-4.01-6.57-7.73-13.16-11.05-19.59-15.96-30.86-19.59-51.66-20.41-59.18l30.58-16.73c-3.59,6.75-5.69,14.35-6.06,22.32-.63,13.44,3.51,27.38,11.98,40.32,8.66,13.24,26.62,35.48,27.38,36.42,4.43,5.48,12.8,5.41,17.15-.12,.74-.94,18.25-23.24,27.13-36.06,8.94-12.91,13.25-26.98,12.46-40.67-.46-7.97-2.68-15.61-6.41-22.41l30.97,16.94c-.79,7.48-4.36,28.1-20.43,59.17-3.31,6.41-7.03,13-11.05,19.59-2.24,3.67,.45,8.34,4.68,8.34,1.85,0,3.65-.93,4.69-2.63,4.15-6.81,8-13.63,11.43-20.26,21.63-41.82,21.88-66.32,21.88-67.34,0-2-1.09-3.85-2.85-4.81l-43.13-23.59,67.39,15.82c.7,6.33,.92,23.83-9.75,58.08-1.1,3.53,1.54,7.11,5.24,7.11,2.34,0,4.5-1.51,5.23-3.85,14.98-48.1,9.84-65.77,9.21-67.63Zm-123.85-54.64c4.78-4.78,12.67-4.88,17.55,0,4.83,4.83,5.72,13.03,.48,21.04-2.93,4.48-9.26,12.31-9.26,12.31,0,0-6.21-7.91-9.26-12.31-5.54-8-4.35-16.21,.48-21.04Zm35.27,116.55c-8.79,12.7-26.74,35.53-26.74,35.53,0,0-18.28-22.6-26.74-35.53-15.12-23.11-12.54-46.79,1.4-60.73,6.97-6.97,16.11-10.46,25.25-10.46h.16c9.14,0,18.28,3.48,25.25,10.46,13.95,13.95,17.4,37.63,1.4,60.73Z"/><g><path class="cls-1" d="M17.66,292.61h9.29c.09,1.82,.77,3.19,2.05,4.1,1.37,.91,3.19,1.37,5.47,1.37,1.64,0,3.05-.32,4.24-.96,1.09-.64,1.64-1.5,1.64-2.6,0-1.64-1.91-2.87-5.74-3.69-1.64-.27-2.87-.55-3.69-.82-4.83-1.18-8.06-2.6-9.71-4.24-1.82-1.64-2.73-3.83-2.73-6.56,0-3.46,1.32-6.33,3.96-8.61,2.73-2.1,6.29-3.14,10.66-3.14,4.74,0,8.52,1.05,11.35,3.14,2.64,2.28,4.05,5.24,4.24,8.88h-5.88c-1.73,0-3.05-.77-3.96-2.32-.37-.36-.73-.73-1.09-1.09-1.09-.82-2.6-1.23-4.51-1.23s-3.19,.27-4.1,.82c-.82,.55-1.23,1.37-1.23,2.46,0,1.46,2.37,2.69,7.11,3.69,.55,.18,1.02,.32,1.43,.41,.41,.09,.8,.14,1.16,.14,4.65,1.18,7.88,2.55,9.71,4.1,1.73,1.64,2.6,3.83,2.6,6.56,0,4.01-1.46,7.11-4.37,9.29-2.73,2.01-6.83,3.01-12.3,3.01s-9.07-1.05-11.62-3.14c-2.64-2.1-3.96-5.15-3.96-9.16v-.41Z"/><path class="cls-1" d="M65.81,307.38c0,1.28-.46,2.37-1.37,3.28-.91,.91-2,1.37-3.28,1.37h-4.65v-28.04c0-6.38,1.87-10.73,5.6-13.05,3.74-2.32,7.79-3.49,12.16-3.49,2.28,0,4.58,.43,6.9,1.3,2.32,.87,4.17,2.12,5.54,3.76,2.73,3.55,4.1,8.11,4.1,13.67s-1.37,10.39-4.1,13.94c-2.73,3.46-6.24,5.19-10.53,5.19-2.28,0-4.28-.41-6.01-1.23-1.82-.91-3.28-2.32-4.37-4.24v7.53Zm15.58-20.79c0-3.55-.68-6.29-2.05-8.2-1.37-1.91-3.33-2.87-5.88-2.87s-4.38,.96-5.74,2.87c-1.28,1.73-1.91,4.47-1.91,8.2,0,3.46,.68,6.06,2.05,7.79,1.37,1.91,3.33,2.87,5.88,2.87,2.37,0,4.24-.96,5.6-2.87,1.37-1.91,2.05-4.51,2.05-7.79Z"/><path class="cls-1" d="M98.39,257.61h4.92c1.28,0,2.37,.46,3.28,1.37,.91,.91,1.37,2.01,1.37,3.28v2.87h-9.57v-7.52Zm0,10.66h4.92c1.28,0,2.37,.46,3.28,1.37,.91,.91,1.37,2.01,1.37,3.28v31.71h-9.57v-36.36Z"/><path class="cls-1" d="M139.52,257.48h4.65c1.28,0,2.37,.48,3.28,1.43,.91,.96,1.37,2.03,1.37,3.21v26.65c0,6.47-1.87,10.85-5.6,13.12-3.74,2.28-7.79,3.42-12.17,3.42-2.37,0-4.69-.39-6.97-1.16-2.28-.77-4.1-2.03-5.47-3.76-2.64-3.37-3.96-7.97-3.96-13.81s1.32-10.34,3.96-13.81c2.73-3.55,6.24-5.33,10.53-5.33,2.28,0,4.28,.46,6.02,1.37,1.82,1.09,3.28,2.51,4.37,4.24v-15.58Zm-15.58,28.71c0,3.65,.68,6.42,2.05,8.34,1.37,1.91,3.32,2.87,5.88,2.87s4.37-.96,5.74-2.87c1.28-1.91,1.91-4.69,1.91-8.34,0-3.28-.68-5.88-2.05-7.79-1.46-1.82-3.42-2.73-5.88-2.73s-4.24,.96-5.6,2.87c-1.37,1.82-2.05,4.37-2.05,7.66Z"/><path class="cls-1" d="M180.85,293.43h6.83c-1,3.83-2.92,6.75-5.74,8.75-2.83,2.1-6.38,3.14-10.66,3.14-5.19,0-9.25-1.69-12.17-5.06-2.92-3.28-4.37-7.97-4.37-14.08s1.41-10.39,4.24-13.67c2.92-3.37,6.97-5.06,12.17-5.06,5.47,0,9.71,1.64,12.71,4.92,2.92,3.37,4.37,8.06,4.37,14.08v1.5c0,.46-.05,.78-.14,.96h-23.65c.09,2.83,.77,4.92,2.05,6.29,1.18,1.46,2.96,2.19,5.33,2.19,1.55,0,2.87-.32,3.96-.96,.27-.09,.52-.25,.75-.48,.23-.23,.48-.48,.75-.75,.09-.27,.43-.64,1.02-1.09,.59-.46,1.44-.68,2.53-.68Zm-16.4-10.66h13.94c-.18-2.46-.82-4.28-1.91-5.47-1.19-1.28-2.87-1.91-5.06-1.91-2.01,0-3.65,.64-4.92,1.91-1.28,1.28-1.96,3.1-2.05,5.47Z"/><path class="cls-1" d="M194.83,304.64v-17.63c0-3.55,.52-6.54,1.57-8.95,1.04-2.41,2.48-4.35,4.3-5.81,1.73-1.37,3.76-2.37,6.08-3.01,2.32-.64,4.71-.96,7.18-.96h1.37v9.7h-3.14c-2.64,0-4.6,.64-5.88,1.91-1.28,1.28-1.91,3.28-1.91,6.01v18.73h-9.57Z"/></g></g></g></svg>